<?xml version="1.0" encoding="utf-8"?>
<!-- Generator: Adobe Illustrator 23.0.3, SVG Export Plug-In . SVG Version: 6.00 Build 0)  -->
<svg version="1.1" xmlns="http://www.w3.org/2000/svg" xmlns:xlink="http://www.w3.org/1999/xlink" x="0px" y="0px"
	 viewBox="0 0 53.892 63.198" style="enable-background:new 0 0 53.892 63.198;" xml:space="preserve">
<style type="text/css">
	.st0{fill:#CCF2EE;}
	.st1{fill:#01BCAB;}
	.st2{fill:#99E4DD;}
	.st3{opacity:0.2;fill:url(#SVGID_1_);}
	.st4{fill:none;stroke:#FFFFFF;stroke-width:1.5;stroke-linecap:round;stroke-linejoin:round;stroke-miterlimit:10;}
	.st5{fill:none;stroke:#FFFFFF;stroke-width:1.5091;stroke-linecap:round;stroke-linejoin:round;stroke-miterlimit:10;}
	.st6{opacity:0.2;fill:url(#SVGID_2_);}
	.st7{opacity:0.2;fill:url(#SVGID_3_);}
	.st8{opacity:0.2;fill:url(#SVGID_4_);}
	.st9{opacity:0.2;fill:url(#SVGID_5_);}
	.st10{opacity:0.2;fill:url(#SVGID_6_);}
	.st11{opacity:0.2;fill:url(#SVGID_7_);}
	.st12{opacity:0.2;fill:url(#SVGID_8_);}
	.st13{opacity:0.2;fill:url(#SVGID_9_);}
</style>
<g id="BG_-_Worldmap">
</g>
<g id="BG_-_Title_Fond">
</g>
<g id="PULSE">
</g>
<g id="SCENE_-_Sustainability">
	<g>
		<g>
			<g>
				<g>
					<g>
						<polygon class="st0" points="53.892,37.927 53.892,12.642 26.946,0 0,12.642 0,37.927 26.946,50.569 						"/>
						<polygon class="st1" points="53.892,50.556 53.892,25.272 26.946,12.629 0,25.272 0,50.556 26.946,63.198 						"/>
						<polygon class="st2" points="26.946,0 26.946,12.629 53.892,25.272 53.892,12.642 						"/>
					</g>
				</g>
				<linearGradient id="SVGID_1_" gradientUnits="userSpaceOnUse" x1="18.371" y1="22.2019" x2="45.0573" y2="47.8417">
					<stop  offset="0" style="stop-color:#FFFFFF"/>
					<stop  offset="1" style="stop-color:#FFFFFF;stop-opacity:0"/>
				</linearGradient>
				<polygon class="st3" points="4.85,22.996 39.093,57.239 53.892,50.556 53.892,42.332 25.072,13.512 				"/>
			</g>
		</g>
		<g>
			<circle class="st4" cx="16.761" cy="34.359" r="2.976"/>
			<path class="st4" d="M10.009,49.707c0-5.571,0.972-10.087,6.728-10.087s6.728,4.516,6.728,10.087"/>
			<circle class="st4" cx="26.99" cy="28.797" r="2.676"/>
			<path class="st4" d="M20.959,40.929c0.216-4.213,1.424-7.402,6.011-7.402c4.573,0,5.788,3.171,6.009,7.364"/>
			<circle class="st4" cx="37.178" cy="34.359" r="2.976"/>
			<path class="st4" d="M30.427,49.707c0-5.571,0.972-10.087,6.728-10.087s6.728,4.516,6.728,10.087"/>
		</g>
	</g>
</g>
<g id="FLAG_-_Enviroment">
</g>
<g id="MARK_-_Enviroment">
</g>
<g id="FLAG_-_Social">
</g>
<g id="MARK_-_Social">
</g>
<g id="FLAG_-_Good_Work">
</g>
<g id="MARK_-_Good_Work">
</g>
<g id="Back_Button">
</g>
<g id="Language_Select">
</g>
<g id="Text">
</g>
<g id="Overlay">
</g>
<g id="SM_Icons">
</g>
<g id="FLAG_-_LOGO">
</g>
<g id="LOGO">
</g>
</svg>
