<svg xmlns="http://www.w3.org/2000/svg" width="38.249" height="38.249" viewBox="0 0 38.249 38.249">
  <g id="Group_1210" data-name="Group 1210" transform="translate(-2861.017 -5488.827)">
    <path id="Path_3" data-name="Path 3" d="M2870.595,5508.305l-7.071,7.071a6,6,0,0,0,0,8.485l.707.707a6,6,0,0,0,8.485,0l11.314-11.313a6,6,0,0,0,0-8.486l-.707-.707" fill="none" stroke="#b5b5be" stroke-linecap="round" stroke-linejoin="round" stroke-width="1.5"/>
    <path id="Path_4" data-name="Path 4" d="M2883.323,5504.062" fill="none" stroke="#b5b5be" stroke-linecap="round" stroke-linejoin="round" stroke-width="1.5"/>
    <path id="Path_5" data-name="Path 5" d="M2876.959,5511.841l-.707-.708a6,6,0,0,1,0-8.485l11.313-11.314a6,6,0,0,1,8.486,0l.707.708a6,6,0,0,1,0,8.485l-7.071,7.071" fill="none" stroke="#b5b5be" stroke-linecap="round" stroke-linejoin="round" stroke-width="1.5"/>
  </g>
</svg>
