<svg width="374" height="83" viewBox="0 0 374 83" fill="none" xmlns="http://www.w3.org/2000/svg">
<path opacity="0.83" d="M0 1V17.172V66.034L22.957 82.206H373.85V1H0Z" fill="white"/>
<path d="M0 1H373.85" stroke="url(#paint0_linear)" stroke-miterlimit="10"/>
<path d="M93.7317 32.9778H89.0928V53.5718H93.7317V32.9778Z" fill="black"/>
<path d="M109.152 53.5718C109.152 53.5718 105.586 47.1088 103.333 42.9788C103.011 42.3618 102.341 40.8618 102.341 40.8618C102.341 40.8618 102.448 42.4428 102.448 43.1128V53.5718H98.3477V32.9768H102.448C102.448 32.9768 106.095 39.6768 108.428 43.9448C108.67 44.4538 109.313 46.1168 109.313 46.1168C109.313 46.1168 109.152 44.4538 109.152 43.9168V32.9768H113.252V53.5718" fill="black"/>
<path d="M124.545 53.5718H117.435V32.9768H124.783C129.983 32.9768 133.552 36.3288 133.552 43.8648C133.552 49.9778 130.227 53.5718 124.541 53.5718H124.545ZM123.71 36.1148H121.779V50.4348H124.059C127.143 50.4348 128.805 48.8528 128.805 43.3818C128.805 37.8578 126.687 36.1148 123.705 36.1148" fill="black"/>
<path d="M144.443 53.8938C138.705 53.8938 136.988 51.3188 136.988 47.1938V32.9768H141.52V46.7328C141.52 49.3078 142.057 50.6488 144.497 50.6488C147.232 50.6488 147.527 48.9588 147.527 46.7328V32.9768H151.979V47.1888C151.979 51.3188 149.887 53.8888 144.443 53.8888" fill="black"/>
<path d="M162.116 53.8939C157.423 53.8939 154.929 51.9629 154.929 48.7939C154.934 48.2469 155.025 47.7041 155.197 47.1849L159.488 47.0509C159.308 47.494 159.217 47.9678 159.22 48.4459C159.22 49.9209 159.997 50.8859 162.143 50.8859C164.208 50.8859 165.387 50.1079 165.387 48.3119C165.387 46.8899 164.587 45.9249 161.472 44.7449L158.442 43.5919C157.39 43.2291 156.489 42.5258 155.882 41.5933C155.275 40.6609 154.996 39.5526 155.09 38.4439C155.09 35.0919 157.423 32.6519 162.116 32.6519C165.951 32.6519 168.525 34.6629 168.525 37.6129C168.506 38.0972 168.416 38.5761 168.257 39.0339L164.234 39.1409C164.327 38.8183 164.373 38.4837 164.368 38.1479C164.368 36.2179 163.403 35.5749 161.768 35.5749C160.186 35.5749 159.274 36.3519 159.274 37.5589C159.274 38.9539 160.079 39.5699 162.144 40.4019L165.523 41.7689C168.446 42.9489 169.786 45.0399 169.786 47.4799C169.786 51.7439 167.212 53.8899 162.117 53.8899" fill="black"/>
<path d="M180.887 36.3558V53.5718H176.302V36.3558H171.233V32.9768H185.956V36.3558" fill="black"/>
<path d="M198.535 53.5718C197.972 53.1718 197.811 52.1498 197.735 51.2128C197.708 50.5948 197.708 49.0128 197.681 47.9938C197.654 46.5458 197.091 45.4458 195.187 45.4458H193.176V53.5718H188.59V32.9768H195.804C200.497 32.9768 202.937 35.1228 202.937 39.1178C202.937 42.2828 200.926 43.1938 198.837 43.5698C201.492 43.9698 202.323 45.7408 202.431 49.1198C202.457 49.9198 202.511 50.7558 202.538 51.2648C202.559 52.0904 202.82 52.8921 203.289 53.5718H198.535ZM194.439 36.1418H193.179V42.0678H194.979C197.017 42.0678 198.224 41.3978 198.224 39.1448C198.224 37.0528 196.83 36.1448 194.443 36.1448" fill="black"/>
<path d="M211.473 32.9768H206.834V53.5708H211.473V32.9768Z" fill="black"/>
<path d="M216.1 53.5718V32.9768L228.569 32.9778V36.2758H220.631V41.2368H227.765V44.7218H220.631V50.2468H229.239V53.5718" fill="black"/>
<path d="M245.008 49.2809V53.5719H241.308V49.2809H233.316V45.2809L240.047 32.9719H245.009V46.0589H246.993V49.2759L245.008 49.2809ZM241.308 37.8529L236.454 46.0589H241.308" fill="black"/>
<path d="M262.841 53.8928C258.175 53.8928 256.379 51.1048 256.379 44.2668C256.379 36.4358 257.639 32.6548 262.841 32.6548C267.561 32.6548 269.358 36.5968 269.358 44.2128C269.358 50.8128 267.347 53.8928 262.841 53.8928ZM262.868 35.6848C261.179 35.6848 260.75 36.8388 260.75 43.4848C260.75 48.8488 261.098 50.8058 262.841 50.8058C264.584 50.8058 264.987 49.1968 264.987 43.4848C264.987 36.8608 264.343 35.6848 262.868 35.6848Z" fill="black"/>
<path d="M93.7317 23.4839H89.0947V28.1209H93.7317V23.4839Z" fill="#0084CA"/>
<path d="M211.445 23.4839H206.808V28.1209H211.445V23.4839Z" fill="#0084CA"/>
<path d="M254.077 49.0039H249.439V53.6409H254.077V49.0039Z" fill="#0084CA"/>
<path d="M103.546 26.389H102.897V28.122H102.155V23.595H103.446C104.418 23.595 105.007 23.95 105.007 24.995C105.007 26.026 104.436 26.386 103.546 26.386V26.389ZM103.575 24.176H102.897V25.803H103.597C103.921 25.803 104.222 25.537 104.222 24.995C104.222 24.453 103.939 24.176 103.579 24.176" fill="black"/>
<path d="M113.769 28.121V23.595H114.51V27.52H116.173V28.121" fill="black"/>
<path d="M127.335 28.1219L127.093 27.1319H125.702L125.467 28.1219H124.741L125.909 23.5969H126.892L128.092 28.1219H127.335ZM126.377 24.3099L125.864 26.5099H126.924" fill="black"/>
<path d="M137.965 24.1969V28.1209H137.223V24.1969H136.115V23.5959H139.056V24.1969" fill="black"/>
<path d="M149.426 24.1969V28.1209H148.684V24.1969H147.576V23.5959H150.517V24.1969" fill="black"/>
<path d="M159.969 24.1969V25.5809H161.523V26.1819H159.969V28.1209H159.231V23.5959H161.653V24.1969" fill="black"/>
<path d="M171.996 28.1919C170.882 28.1919 170.246 27.6429 170.246 25.8519C170.246 24.1439 170.953 23.5249 171.996 23.5249C173.015 23.5249 173.752 24.1379 173.752 25.8519C173.752 27.6669 173.086 28.1919 171.996 28.1919ZM171.996 24.0969C171.407 24.0969 171.035 24.4369 171.035 25.8639C171.035 27.3259 171.383 27.6089 171.996 27.6089C172.543 27.6089 172.962 27.3189 172.962 25.8639C172.962 24.4259 172.532 24.0969 171.996 24.0969Z" fill="black"/>
<path d="M184.706 28.1219C184.62 27.9629 184.581 27.7829 184.595 27.6029C184.595 27.4679 184.6 27.0619 184.595 26.8369C184.597 26.7603 184.584 26.684 184.555 26.6131C184.526 26.5422 184.481 26.4784 184.426 26.426C184.37 26.3736 184.303 26.3338 184.23 26.3093C184.158 26.2847 184.081 26.2761 184.005 26.2839H183.345V28.1219H182.602V23.5959H184.04C184.227 23.5667 184.418 23.5808 184.599 23.637C184.78 23.6933 184.946 23.7903 185.083 23.9205C185.221 24.0508 185.327 24.2108 185.393 24.3884C185.46 24.5659 185.484 24.7563 185.466 24.9449C185.491 25.1834 185.427 25.4229 185.287 25.6175C185.147 25.8122 184.94 25.9483 184.706 25.9999C185.16 26.0399 185.367 26.4299 185.367 27.1429C185.367 27.3199 185.378 27.5019 185.385 27.6149C185.385 27.7877 185.417 27.9591 185.478 28.1209L184.706 28.1219ZM183.923 24.1969H183.345V25.6819H183.993C184.09 25.6914 184.188 25.6789 184.28 25.6452C184.372 25.6114 184.455 25.5574 184.523 25.4872C184.591 25.4169 184.642 25.3322 184.673 25.2393C184.704 25.1465 184.713 25.0479 184.701 24.9509C184.709 24.8476 184.695 24.7436 184.659 24.6465C184.622 24.5495 184.565 24.4617 184.49 24.3895C184.416 24.3174 184.326 24.2627 184.228 24.2294C184.13 24.196 184.026 24.1849 183.923 24.1969Z" fill="black"/>
<path d="M197.647 28.121V24.479L196.627 28.121H195.955L195.054 24.479V28.121H194.371V23.595H195.49L196.356 26.972L197.294 23.595H198.36V28.121" fill="black"/>
<path d="M85.0557 40.5608H80.4526V53.6408H85.0557V40.5608Z" fill="#0084CA"/>
<path d="M77.0269 44.3818H72.4238V53.6398H77.0269V44.3818Z" fill="#009AD6"/>
<path d="M68.9985 47.616H64.3955V53.642H68.9985V47.616Z" fill="#66B1E1"/>
<path d="M60.9697 51.106H56.3667V53.641H60.9697V51.106Z" fill="#A3CBEC"/>
<defs>
<linearGradient id="paint0_linear" x1="-nan" y1="-nan" x2="-nan" y2="-nan" gradientUnits="userSpaceOnUse">
<stop stop-color="#82A9C1"/>
<stop offset="1" stop-color="white"/>
</linearGradient>
</defs>
</svg>
