<?xml version="1.0" encoding="UTF-8"?>
<svg width="116px" height="106px" viewBox="0 0 116 106" version="1.1" xmlns="http://www.w3.org/2000/svg" xmlns:xlink="http://www.w3.org/1999/xlink">
    <!-- Generator: Sketch 53.1 (72631) - https://sketchapp.com -->
    <title>MARK_-_AI</title>
    <desc>Created with Sketch.</desc>
    <defs>
        <linearGradient x1="0%" y1="50%" x2="100%" y2="50%" id="linearGradient-1">
            <stop stop-color="#0778A5" offset="0%"></stop>
            <stop stop-color="#51A0C0" offset="100%"></stop>
        </linearGradient>
        <linearGradient x1="27.5705534%" y1="26.0490127%" x2="81.9845335%" y2="72.6633094%" id="linearGradient-2">
            <stop stop-color="#B5D6E4" offset="0%"></stop>
            <stop stop-color="#FFFFFF" stop-opacity="0" offset="100%"></stop>
        </linearGradient>
    </defs>
    <g id="Page-1" stroke="none" stroke-width="1" fill="none" fill-rule="evenodd">
        <g id="1601_IFOK_WIM_INTEROPERABILITY_for_svg_je-Kopie-01-01" transform="translate(-1280.000000, -530.000000)">
            <g id="interoperability" transform="translate(329.000000, 170.000000)">
                <g id="MARK_-_AI" transform="translate(952.000000, 359.000000)">
                    <polygon id="Path" fill="#B5D6E4" fill-rule="nonzero" points="99.417 82.671 99.417 51.686 56.851 36.194 14.286 51.686 14.286 82.671 56.851 98.164"></polygon>
                    <polygon id="Path" fill="#51A0C0" fill-rule="nonzero" points="99.417 74.069 99.417 43.084 56.851 27.591 14.286 43.084 14.286 74.069 56.851 89.561"></polygon>
                    <rect id="Rectangle" fill="url(#linearGradient-1)" fill-rule="nonzero" x="53.974" y="58.809" width="44.919" height="10.87"></rect>
                    <polygon id="Path" stroke="#0778A5" stroke-width="1.83485282" points="113.615 84.608 113.615 43.287 56.851 22.627 0.087 43.287 0.087 84.608 56.851 105.268"></polygon>
                    <polygon id="Path" fill="#E6F1F6" fill-rule="nonzero" points="84.88 39.475 84.88 13.808 57.526 0.974 30.172 13.808 30.172 39.475 57.526 52.309"></polygon>
                    <polygon id="Path" fill="#0778A5" fill-rule="nonzero" points="84.88 52.296 84.88 26.629 57.526 13.795 30.172 26.629 30.172 52.296 57.526 65.129"></polygon>
                    <polygon id="Path" fill="#B5D6E4" fill-rule="nonzero" points="57.526 0.974 57.526 13.795 84.88 26.629 84.88 13.808"></polygon>
                    <polygon id="Path" fill="url(#linearGradient-2)" fill-rule="nonzero" opacity="0.2" points="35.095 24.319 69.857 59.08 84.88 52.296 84.88 43.948 55.623 14.691"></polygon>
                    <ellipse id="Oval" stroke="#FFFFFF" stroke-width="1.57354658" cx="57.945" cy="36.6" rx="1.232" ry="1.126"></ellipse>
                    <ellipse id="Oval" stroke="#FFFFFF" stroke-width="1.57354658" cx="63.498" cy="35.499" rx="1.861" ry="1.7"></ellipse>
                    <ellipse id="Oval" stroke="#FFFFFF" stroke-width="1.57354658" cx="53.668" cy="33.162" rx="1.232" ry="1.126"></ellipse>
                    <ellipse id="Oval" stroke="#FFFFFF" stroke-width="1.57354658" cx="60.059" cy="31.798" rx="1.232" ry="1.126"></ellipse>
                    <ellipse id="Oval" stroke="#FFFFFF" stroke-width="1.57354658" cx="60.059" cy="40.373" rx="1" ry="1"></ellipse>
                    <ellipse id="Oval" stroke="#FFFFFF" stroke-width="1.57354658" cx="53.668" cy="39.925" rx="1" ry="1"></ellipse>
                    <ellipse id="Oval" stroke="#FFFFFF" stroke-width="1.57354658" cx="48.894" cy="33.799" rx="1" ry="1"></ellipse>
                    <ellipse id="Oval" stroke="#FFFFFF" stroke-width="1.57354658" cx="56.141" cy="28.392" rx="1" ry="1"></ellipse>
                    <ellipse id="Oval" stroke="#FFFFFF" stroke-width="1.57354658" cx="67.896" cy="32.036" rx="1" ry="1"></ellipse>
                    <ellipse id="Oval" stroke="#FFFFFF" stroke-width="1.57354658" cx="49.407" cy="38.076" rx="1" ry="1"></ellipse>
                    <ellipse id="Oval" stroke="#FFFFFF" stroke-width="1.57354658" cx="50.784" cy="31.097" rx="1" ry="1"></ellipse>
                    <ellipse id="Oval" stroke="#FFFFFF" stroke-width="1.57354658" cx="63.149" cy="28.567" rx="1" ry="1"></ellipse>
                    <ellipse id="Oval" stroke="#FFFFFF" stroke-width="1.57354658" cx="69.229" cy="36.074" rx="1" ry="1"></ellipse>
                    <ellipse id="Oval" stroke="#FFFFFF" stroke-width="1.57354658" cx="66.936" cy="41.147" rx="1" ry="1"></ellipse>
                    <ellipse id="Oval" stroke="#FFFFFF" stroke-width="1.57354658" cx="63.442" cy="42.432" rx="1" ry="1"></ellipse>
                    <ellipse id="Oval" stroke="#FFFFFF" stroke-width="1.57354658" cx="62.059" cy="45.695" rx="1" ry="1"></ellipse>
                    <ellipse id="Oval" stroke="#FFFFFF" stroke-width="1.57354658" cx="63.498" cy="39.049" rx="1" ry="1"></ellipse>
                    <ellipse id="Oval" stroke="#FFFFFF" stroke-width="1.57354658" cx="67.704" cy="38.777" rx="1" ry="1"></ellipse>
                    <ellipse id="Oval" stroke="#FFFFFF" stroke-width="1.57354658" cx="56.332" cy="41.249" rx="1" ry="1"></ellipse>
                    <path d="M50.115,38.347 L52.767,39.633" id="Path" stroke="#FFFFFF" stroke-width="1.57354658"></path>
                    <path d="M54.415,39.381 L56.906,37.199" id="Path" stroke="#FFFFFF" stroke-width="1.57354658"></path>
                    <path d="M57.1,35.782 L54.627,33.867" id="Path" stroke="#FFFFFF" stroke-width="1.57354658"></path>
                    <path d="M54.777,32.675 L58.855,32.036" id="Path" stroke="#FFFFFF" stroke-width="1.57354658"></path>
                    <path d="M60.822,32.675 L62.381,34.143" id="Path" stroke="#FFFFFF" stroke-width="1.57354658"></path>
                    <path d="M60.568,39.633 L62.381,36.775" id="Path" stroke="#FFFFFF" stroke-width="1.57354658"></path>
                    <path d="M63.498,38.347 L63.498,37.199" id="Path" stroke="#FFFFFF" stroke-width="1.57354658"></path>
                    <path d="M64.615,34.143 L67.07,32.475" id="Path" stroke="#FFFFFF" stroke-width="1.57354658"></path>
                    <path d="M60.568,30.775 L62.551,29.002" id="Path" stroke="#FFFFFF" stroke-width="1.57354658"></path>
                    <path d="M56.816,29.002 L59.177,31.012" id="Path" stroke="#FFFFFF" stroke-width="1.57354658"></path>
                    <path d="M51.144,30.48 L55.201,28.567" id="Path" stroke="#FFFFFF" stroke-width="1.57354658"></path>
                    <path d="M50.175,31.519 L49.208,32.924" id="Path" stroke="#FFFFFF" stroke-width="1.57354658"></path>
                    <path d="M48.894,34.675 L49.208,37.399" id="Path" stroke="#FFFFFF" stroke-width="1.57354658"></path>
                    <path d="M57.075,28.198 L62.551,28.392" id="Path" stroke="#FFFFFF" stroke-width="1.57354658"></path>
                    <path d="M63.917,28.567 L67.203,31.432" id="Path" stroke="#FFFFFF" stroke-width="1.57354658"></path>
                    <path d="M68.461,32.743 L69.117,35.474" id="Path" stroke="#FFFFFF" stroke-width="1.57354658"></path>
                    <path d="M68.855,36.683 L68.008,38.204" id="Path" stroke="#FFFFFF" stroke-width="1.57354658"></path>
                    <path d="M67.07,40.457 L67.32,39.381" id="Path" stroke="#FFFFFF" stroke-width="1.57354658"></path>
                    <path d="M62.254,45.019 L63.149,43.08" id="Path" stroke="#FFFFFF" stroke-width="1.57354658"></path>
                    <path d="M64.21,42.263 L66.247,41.45" id="Path" stroke="#FFFFFF" stroke-width="1.57354658"></path>
                    <path d="M57.1,41.249 L59.177,40.548" id="Path" stroke="#FFFFFF" stroke-width="1.57354658"></path>
                    <path d="M60.822,40.898 L62.73,42.169" id="Path" stroke="#FFFFFF" stroke-width="1.57354658"></path>
                    <path d="M59.177,36.6 L61.663,35.782" id="Path" stroke="#FFFFFF" stroke-width="1.57354658"></path>
                    <path d="M53.747,53.965 L44.734,53.965 L44.734,44.994 L39.812,43.528 L44.175,37.689 C44.0520771,32.4850639 46.7580626,27.6229496 51.2454321,24.9848487 C55.7328016,22.3467477 61.2971984,22.3467477 65.7845679,24.9848487 C70.2719374,27.6229496 72.9779229,32.4850639 72.855,37.689 L69.02,53.965" id="Path" stroke="#FFFFFF" stroke-width="1.57354658"></path>
                </g>
            </g>
        </g>
    </g>
</svg>