<?xml version="1.0" encoding="utf-8"?>
<!-- Generator: Adobe Illustrator 23.0.3, SVG Export Plug-In . SVG Version: 6.00 Build 0)  -->
<svg version="1.1" xmlns="http://www.w3.org/2000/svg" xmlns:xlink="http://www.w3.org/1999/xlink" x="0px" y="0px"
	 viewBox="0 0 53.892 63.198" style="enable-background:new 0 0 53.892 63.198;" xml:space="preserve">
<style type="text/css">
	.st0{fill:#CCF2EE;}
	.st1{fill:#01BCAB;}
	.st2{fill:#99E4DD;}
	.st3{opacity:0.2;fill:url(#SVGID_1_);}
	.st4{fill:none;stroke:#FFFFFF;stroke-width:1.5;stroke-linecap:round;stroke-linejoin:round;stroke-miterlimit:10;}
	.st5{fill:none;stroke:#FFFFFF;stroke-width:1.5091;stroke-linecap:round;stroke-linejoin:round;stroke-miterlimit:10;}
	.st6{opacity:0.2;fill:url(#SVGID_2_);}
	.st7{opacity:0.2;fill:url(#SVGID_3_);}
	.st8{opacity:0.2;fill:url(#SVGID_4_);}
	.st9{opacity:0.2;fill:url(#SVGID_5_);}
	.st10{opacity:0.2;fill:url(#SVGID_6_);}
	.st11{opacity:0.2;fill:url(#SVGID_7_);}
	.st12{opacity:0.2;fill:url(#SVGID_8_);}
	.st13{opacity:0.2;fill:url(#SVGID_9_);}
</style>
<g id="BG_-_Worldmap">
</g>
<g id="BG_-_Title_Fond">
</g>
<g id="PULSE">
</g>
<g id="SCENE_-_Sustainability">
	<g>
		<g>
			<g>
				<polygon class="st0" points="53.892,37.927 53.892,12.642 26.946,0 0,12.642 0,37.927 26.946,50.569 				"/>
				<polygon class="st1" points="53.892,50.556 53.892,25.272 26.946,12.629 0,25.272 0,50.556 26.946,63.198 				"/>
				<polygon class="st2" points="26.946,0 26.946,12.629 53.892,25.272 53.892,12.642 				"/>
			</g>
		</g>
		<linearGradient id="SVGID_1_" gradientUnits="userSpaceOnUse" x1="18.371" y1="22.2019" x2="45.0573" y2="47.8417">
			<stop  offset="0" style="stop-color:#FFFFFF"/>
			<stop  offset="1" style="stop-color:#FFFFFF;stop-opacity:0"/>
		</linearGradient>
		<polygon class="st3" points="4.85,22.996 39.093,57.239 53.892,50.556 53.892,42.332 25.072,13.512 		"/>
		<g>
			<polygon class="st4" points="38.256,50.361 38.256,29.173 32.937,25.16 15.637,25.16 15.637,50.361 			"/>
			<polygon class="st4" points="32.937,29.173 32.937,25.16 38.256,29.173 			"/>
			<line class="st4" x1="18.444" y1="27.586" x2="28.891" y2="27.586"/>
			<line class="st4" x1="18.248" y1="32.557" x2="34.492" y2="32.557"/>
			<line class="st4" x1="18.248" y1="35.427" x2="34.492" y2="35.427"/>
			<line class="st4" x1="18.248" y1="41.167" x2="34.492" y2="41.167"/>
			<line class="st4" x1="18.248" y1="44.037" x2="25.988" y2="44.037"/>
			<line class="st4" x1="18.248" y1="38.297" x2="32.749" y2="38.297"/>
		</g>
	</g>
</g>
<g id="FLAG_-_Enviroment">
</g>
<g id="MARK_-_Enviroment">
</g>
<g id="FLAG_-_Social">
</g>
<g id="MARK_-_Social">
</g>
<g id="FLAG_-_Good_Work">
</g>
<g id="MARK_-_Good_Work">
</g>
<g id="Back_Button">
</g>
<g id="Language_Select">
</g>
<g id="Text">
</g>
<g id="Overlay">
</g>
<g id="SM_Icons">
</g>
<g id="FLAG_-_LOGO">
</g>
<g id="LOGO">
</g>
</svg>
