<?xml version="1.0" encoding="utf-8"?>
<!-- Generator: Adobe Illustrator 23.0.3, SVG Export Plug-In . SVG Version: 6.00 Build 0)  -->
<svg version="1.1" id="SM_Icon" xmlns="http://www.w3.org/2000/svg" xmlns:xlink="http://www.w3.org/1999/xlink" x="0px" y="0px"
	 viewBox="0 0 42.112 42.112" style="enable-background:new 0 0 42.112 42.112;" xml:space="preserve">
<style type="text/css">
	.st0{fill:#5297C5;}
	.st1{fill:#FFFFFF;}
	.st2{fill:none;stroke:#FFFFFF;stroke-width:3;stroke-miterlimit:10;}
</style>
<rect y="0" class="st0" width="42.112" height="42.112"/>
<path class="st1" d="M35.38,12.172c-1.054,0.468-2.186,0.783-3.376,0.927c1.212-0.73,2.147-1.881,2.585-3.254
	c-1.137,0.673-2.397,1.163-3.735,1.426c-1.072-1.142-2.597-1.854-4.29-1.854c-3.244,0-5.877,2.632-5.877,5.877
	c0,0.459,0.053,0.91,0.153,1.338c-4.885-0.245-9.214-2.589-12.113-6.144c-0.508,0.87-0.796,1.881-0.796,2.961
	c0,2.038,1.036,3.835,2.615,4.889c-0.967-0.031-1.872-0.293-2.664-0.735c0,0.026,0,0.048,0,0.074c0,2.847,2.025,5.221,4.714,5.763
	c-0.494,0.136-1.01,0.206-1.548,0.206c-0.38,0-0.748-0.035-1.107-0.105c0.748,2.331,2.917,4.036,5.488,4.08
	c-2.007,1.579-4.544,2.515-7.299,2.515c-0.476,0-0.94-0.026-1.399-0.079c2.598,1.666,5.689,2.637,9.009,2.637
	c10.81,0,16.722-8.956,16.722-16.718c0-0.258-0.004-0.512-0.017-0.765C33.596,14.39,34.593,13.353,35.38,12.172"/>
</svg>
